<?xml version="1.0" standalone="no"?>
<!DOCTYPE svg PUBLIC "-//W3C//DTD SVG 20010904//EN"
 "http://www.w3.org/TR/2001/REC-SVG-20010904/DTD/svg10.dtd">
<svg version="1.0" xmlns="http://www.w3.org/2000/svg"
 width="400.000000pt" height="400.000000pt" viewBox="0 0 400.000000 400.000000"
 preserveAspectRatio="xMidYMid meet">
<metadata>
Created by potrace 1.14, written by Peter Selinger 2001-2017
</metadata>
<g transform="translate(0.000000,400.000000) scale(0.100000,-0.100000)"
fill="#000000" stroke="none">
<path d="M1860 3610 c-427 -38 -823 -244 -1094 -569 -323 -387 -448 -888 -346
-1377 116 -559 532 -1021 1077 -1200 166 -54 309 -76 503 -77 189 0 301 16
478 69 716 217 1200 929 1133 1667 -36 408 -189 737 -470 1017 -174 173 -332
278 -537 358 -243 94 -501 133 -744 112z m451 -69 c631 -135 1100 -605 1231
-1236 19 -92 23 -141 23 -305 0 -166 -3 -211 -23 -302 -60 -280 -171 -511
-342 -713 -85 -99 -119 -132 -144 -137 -17 -2 -22 6 -31 52 -6 30 -19 69 -28
87 -9 17 -19 55 -22 84 -9 90 -33 111 -138 124 -50 6 -61 4 -101 -19 l-45 -26
-58 20 c-31 11 -66 20 -78 19 -12 0 -5 -6 20 -15 58 -21 77 -45 83 -103 4 -48
3 -51 -22 -61 -15 -5 -51 -10 -81 -10 -30 0 -57 -5 -61 -11 -13 -22 18 -34 87
-34 l69 0 0 -32 c0 -42 -21 -53 -100 -53 -72 0 -130 25 -148 65 -25 53 -26
109 -4 159 18 39 29 50 74 71 29 14 46 25 38 25 -9 0 -33 -9 -55 -20 -49 -25
-61 -25 -115 1 -75 36 -166 24 -214 -30 -25 -27 -38 -26 -74 4 -44 37 -100 58
-157 58 -60 0 -92 -15 -105 -48 -10 -26 -25 -27 -62 -3 -59 39 -100 48 -197
47 -53 -1 -101 -6 -108 -11 -7 -6 -19 5 -35 33 -36 66 -63 81 -149 82 -104 2
-162 -25 -190 -87 -16 -38 -18 -52 -9 -92 6 -26 20 -59 30 -75 26 -35 25 -46
-2 -45 -22 1 -23 -2 -22 -72 1 -65 4 -76 27 -100 24 -23 37 -27 102 -30 42 -3
96 1 121 7 69 17 80 10 106 -72 19 -59 28 -75 52 -86 42 -20 73 -5 122 59 36
48 51 58 123 87 l83 33 56 -16 c45 -13 79 -15 176 -9 67 3 139 5 161 4 90 -6
153 -3 197 11 41 12 52 12 107 -5 47 -14 74 -16 123 -10 88 10 125 9 168 -9
20 -8 64 -18 98 -22 36 -4 63 -12 66 -20 10 -26 -164 -135 -324 -202 -427
-181 -921 -161 -1335 55 -761 397 -1062 1324 -680 2095 58 118 91 169 174 273
85 106 99 122 191 202 235 207 526 340 840 383 110 15 402 4 511 -19z m-1005
-2256 c23 -5 34 -31 34 -82 l0 -32 -44 20 c-45 19 -139 29 -153 16 -20 -21 44
-65 159 -110 35 -14 49 -26 57 -49 30 -86 -2 -154 -79 -168 -76 -13 -183 -12
-202 2 -16 13 -37 118 -23 118 3 0 19 -7 35 -15 45 -23 141 -30 165 -12 16 13
18 19 8 40 -9 20 -27 30 -81 46 -113 34 -155 81 -128 144 33 79 123 108 252
82z m660 -106 c40 -12 64 -62 65 -137 1 -80 10 -105 39 -112 14 -3 25 -11 24
-18 -1 -7 -2 -18 -2 -26 -3 -22 -61 -29 -89 -10 -22 14 -28 14 -63 0 -20 -8
-46 -13 -56 -11 -11 2 -31 6 -46 10 -33 6 -58 49 -58 98 0 46 52 97 109 104
32 4 41 10 41 25 0 17 -5 19 -37 15 -21 -3 -48 -8 -60 -12 -18 -6 -22 -2 -28
25 -8 38 1 49 47 60 34 8 60 5 114 -11z m-451 1 c108 12 110 12 145 -12 52
-34 85 -108 84 -186 -1 -46 -7 -68 -20 -83 -33 -36 -76 -52 -141 -53 l-63 -1
0 -66 0 -66 -36 -6 c-60 -10 -64 -4 -66 92 -3 127 2 353 9 375 4 15 11 17 42
11 20 -3 41 -6 46 -5z m1351 -1 c58 -10 62 -13 68 -42 7 -37 -6 -56 -28 -38
-8 7 -34 11 -58 9 -35 -2 -43 -7 -43 -22 0 -15 15 -26 60 -43 99 -38 127 -91
77 -147 -42 -46 -98 -56 -187 -33 -48 13 -50 15 -53 50 -4 42 -4 42 62 22 53
-16 76 -9 76 26 0 13 -12 21 -39 29 -24 6 -52 24 -70 45 -46 53 -39 109 17
139 33 18 40 19 118 5z m-545 -16 c20 -12 29 -25 29 -44 0 -25 -1 -26 -62 -25
-56 1 -63 -1 -76 -25 -18 -30 -10 -90 15 -115 16 -16 58 -16 94 0 12 5 19 0
27 -23 9 -24 7 -32 -8 -46 -29 -26 -128 -24 -171 3 -46 28 -60 55 -66 122 -7
69 15 123 61 151 40 24 118 25 157 2z"/>
<path d="M1996 3143 c1 -156 3 -163 38 -176 19 -7 -4 -37 -28 -37 -43 0 -54
33 -62 170 -4 69 -9 118 -12 110 -9 -29 -35 -50 -64 -50 -28 0 -28 0 -8 -20
26 -26 32 -52 28 -135 -3 -67 -4 -70 -28 -70 -24 0 -25 3 -30 75 -6 88 -12
100 -48 100 -50 0 -55 -10 -47 -95 l7 -76 -34 3 -33 3 -2 105 c-1 63 3 107 9
111 6 4 -4 15 -21 25 -17 10 -31 21 -31 24 0 14 -90 50 -136 55 l-49 5 57 -13
c91 -21 129 -68 127 -159 -1 -85 -19 -130 -59 -150 -46 -24 -124 -22 -178 2
-49 22 -72 64 -72 131 0 23 -2 40 -5 37 -13 -13 -6 -117 9 -147 22 -41 87 -88
134 -96 21 -3 71 1 112 9 106 20 252 29 285 16 30 -11 209 -14 345 -5 133 9
225 7 390 -10 75 -8 100 14 124 109 19 78 11 124 -27 151 -31 22 -41 18 -23
-7 19 -27 21 -69 4 -86 -7 -7 -39 -12 -75 -12 -48 0 -63 -3 -63 -14 0 -29 41
-47 93 -40 47 7 49 6 45 -17 -3 -21 -9 -24 -57 -27 -30 -2 -65 -1 -78 3 -50
12 -78 104 -53 171 10 24 9 26 -10 21 -12 -3 -37 1 -55 9 -45 19 -52 18 -26
-3 43 -36 49 -203 7 -211 -27 -6 -36 15 -36 81 0 73 -12 97 -49 97 -45 0 -53
-19 -45 -99 l7 -71 -32 0 c-20 0 -34 6 -38 16 -3 9 -2 59 3 112 l9 97 -32 28
c-17 15 -34 40 -36 55 -4 24 -4 23 -6 -6 -1 -29 -4 -33 -23 -30 -18 2 -23 9
-23 31 1 24 -1 26 -10 13 -10 -13 -17 -14 -43 -4 -18 7 -32 18 -32 25 0 6 -3
14 -7 16 -5 3 -8 -65 -7 -150z m148 10 c3 -10 4 -63 1 -118 -3 -90 -6 -100
-22 -97 -30 6 -35 17 -40 100 -7 103 0 132 32 132 14 0 26 -7 29 -17z"/>
<path d="M1943 3275 c-3 -9 -3 -18 -1 -21 3 -3 8 4 11 16 6 23 -1 27 -10 5z"/>
<path d="M1530 3226 c0 -2 8 -10 18 -17 15 -13 16 -12 3 4 -13 16 -21 21 -21
13z"/>
<path d="M1414 3185 c-51 -35 -56 -141 -9 -185 35 -33 102 -38 138 -10 24 19
27 28 27 79 0 74 -15 117 -43 125 -39 10 -92 6 -113 -9z m123 -105 c9 -19 9
-29 -2 -51 -20 -38 -42 -43 -71 -14 -30 30 -31 58 -3 84 26 24 58 15 76 -19z"/>
<path d="M2573 3173 c9 -2 25 -2 35 0 9 3 1 5 -18 5 -19 0 -27 -2 -17 -5z"/>
<path d="M1717 3159 c8 -8 16 -8 30 0 16 9 14 10 -11 11 -22 0 -27 -3 -19 -11z"/>
<path d="M2247 3158 c2 -5 10 -8 18 -8 8 0 16 3 18 8 3 4 -5 7 -18 7 -13 0
-21 -3 -18 -7z"/>
<path d="M1316 3143 c-6 -14 -5 -15 5 -6 7 7 10 15 7 18 -3 3 -9 -2 -12 -12z"/>
<path d="M2232 3100 c0 -19 2 -27 5 -17 2 9 2 25 0 35 -3 9 -5 1 -5 -18z"/>
<path d="M2552 3119 c-39 -14 -24 -29 29 -29 43 0 50 2 40 14 -16 19 -42 25
-69 15z"/>
<path d="M1702 3100 c0 -14 2 -19 5 -12 2 6 2 18 0 25 -3 6 -5 1 -5 -13z"/>
<path d="M1702 3045 c0 -16 2 -22 5 -12 2 9 2 23 0 30 -3 6 -5 -1 -5 -18z"/>
<path d="M2232 3040 c0 -14 2 -19 5 -12 2 6 2 18 0 25 -3 6 -5 1 -5 -13z"/>
<path d="M2391 2964 c0 -11 3 -14 6 -6 3 7 2 16 -1 19 -3 4 -6 -2 -5 -13z"/>
<path d="M1987 2959 c7 -7 15 -10 18 -7 3 3 -2 9 -12 12 -14 6 -15 5 -6 -5z"/>
<path d="M1918 2749 c-43 -21 -58 -35 -58 -50 0 -18 5 -21 30 -17 28 4 29 3
15 -12 -23 -25 2 -44 39 -30 22 8 26 7 26 -8 0 -24 47 -65 65 -58 9 3 15 19
15 41 0 29 4 35 21 35 11 0 30 -5 41 -11 29 -15 47 4 30 31 -6 11 -12 26 -12
35 0 16 -109 75 -137 75 -10 -1 -44 -14 -75 -31z"/>
<path d="M2239 2644 c-11 -14 -10 -19 7 -33 11 -9 23 -24 27 -33 6 -18 135
-88 161 -88 23 0 30 19 13 38 -8 9 -12 22 -10 29 3 7 -33 31 -86 58 -50 25
-92 45 -95 45 -2 0 -10 -7 -17 -16z"/>
<path d="M1632 2610 c-45 -21 -82 -43 -82 -48 0 -5 6 -15 14 -21 11 -10 21 -9
45 3 43 23 52 20 14 -4 -33 -20 -37 -50 -6 -50 26 0 153 72 153 86 0 18 -32
18 -75 0 -52 -22 -42 -8 10 15 31 14 45 26 45 39 0 29 -26 25 -118 -20z"/>
<path d="M1977 2564 c-4 -4 -7 -34 -7 -66 l0 -59 -144 -70 c-80 -38 -152 -69
-161 -69 -9 0 -34 9 -57 21 -38 19 -42 20 -57 4 -15 -15 -14 -18 9 -37 14 -11
24 -25 22 -30 -1 -5 14 -18 33 -29 l35 -21 0 -148 0 -148 -49 -21 c-58 -25
-69 -37 -48 -58 11 -12 19 -12 35 -4 32 17 37 13 11 -8 -19 -16 -22 -22 -11
-32 10 -11 18 -11 45 0 66 27 74 25 207 -40 128 -62 130 -63 130 -96 0 -21 6
-36 15 -39 8 -4 15 -13 15 -20 0 -20 30 -30 41 -13 5 8 9 28 9 44 0 17 4 35 8
42 7 12 147 83 241 124 47 20 57 21 85 10 53 -23 86 -25 86 -8 0 9 -4 19 -10
22 -5 3 -10 15 -10 25 0 13 -14 27 -39 40 l-40 20 -3 131 c-2 72 0 139 4 149
4 11 26 29 50 41 61 31 74 59 25 59 -19 0 -20 1 -3 13 19 14 12 47 -10 47 -8
0 -32 -9 -54 -20 -22 -11 -46 -20 -55 -20 -8 0 -73 27 -144 61 l-129 61 -5 40
c-3 23 -10 44 -15 47 -6 3 -12 17 -13 31 -4 24 -28 38 -42 24z m166 -279 l79
-38 -114 -54 -113 -54 -104 50 c-58 28 -97 51 -88 51 19 0 180 79 185 90 5 13
78 -8 155 -45z m-318 15 c-3 -5 -12 -10 -18 -10 -7 0 -6 4 3 10 19 12 23 12
15 0z m464 -247 c0 -60 -3 -118 -5 -129 -4 -16 -33 -35 -107 -69 -56 -26 -108
-50 -114 -52 -19 -7 -18 221 0 238 7 7 60 36 118 65 57 28 105 52 107 53 1 0
2 -47 1 -106z m-416 50 l97 -46 0 -139 0 -138 -47 23 c-27 13 -81 39 -120 57
l-73 34 0 121 c0 67 3 125 7 128 13 14 40 6 136 -40z"/>
<path d="M1353 2480 l-63 -29 0 -80 c0 -56 4 -82 13 -88 8 -4 16 -16 20 -25
13 -35 36 -20 43 28 7 50 1 48 82 27 17 -4 22 -1 22 15 0 12 -4 24 -10 27 -5
3 -10 17 -10 30 0 13 5 27 10 30 18 11 10 35 -12 35 -17 0 -19 3 -10 12 18 18
15 48 -5 48 -10 -1 -46 -14 -80 -30z m67 -34 c0 -2 -7 -7 -16 -10 -8 -3 -12
-2 -9 4 6 10 25 14 25 6z"/>
<path d="M2537 2495 c-4 -8 4 -22 18 -34 30 -23 32 -47 6 -56 -25 -8 -33 -31
-17 -44 10 -8 22 -8 42 -1 25 9 27 8 12 -4 -39 -30 -12 -60 33 -36 16 9 19 7
19 -9 0 -11 9 -25 20 -31 11 -6 20 -18 20 -26 0 -9 7 -14 18 -12 24 5 31 138
7 158 -8 7 -15 21 -15 32 0 14 -17 27 -65 49 -73 33 -90 35 -98 14z"/>
<path d="M1290 2085 c0 -76 3 -97 15 -101 8 -4 15 -12 15 -19 0 -23 22 -29 37
-10 18 26 17 139 -1 158 -8 7 -16 25 -18 38 -2 16 -11 25 -25 27 -22 3 -23 1
-23 -93z"/>
<path d="M2657 2174 c-4 -4 -7 -45 -7 -91 0 -72 3 -84 20 -95 11 -7 20 -18 20
-25 0 -7 9 -13 20 -13 18 0 20 7 20 80 0 57 -4 81 -14 87 -8 4 -16 19 -18 33
-3 24 -27 38 -41 24z"/>
<path d="M1297 1883 c-4 -3 -7 -43 -7 -88 0 -82 0 -83 38 -121 45 -47 130 -82
139 -59 3 9 1 21 -4 28 -18 22 -21 55 -7 61 8 3 14 12 14 21 0 9 -6 18 -14 21
-8 3 -12 13 -8 26 7 27 -15 39 -46 25 -21 -10 -26 -8 -43 13 -10 14 -19 32
-19 41 0 26 -28 47 -43 32z"/>
<path d="M2661 1877 c-6 -6 -11 -33 -11 -59 0 -26 -2 -48 -5 -48 -3 0 -24 9
-46 20 -22 12 -44 18 -49 15 -17 -10 -11 -44 9 -55 24 -12 21 -36 -7 -56 -29
-20 -18 -47 18 -42 25 4 27 2 16 -14 -19 -31 10 -39 63 -16 75 32 81 41 81
123 0 56 -4 74 -15 79 -8 3 -15 16 -15 30 0 27 -22 40 -39 23z"/>
<path d="M1559 1614 c-11 -14 -10 -19 11 -36 14 -11 25 -25 25 -32 0 -12 105
-71 148 -81 22 -6 27 -4 27 12 0 11 -3 23 -7 27 -4 4 -8 15 -8 24 0 11 -29 31
-85 59 -47 23 -88 42 -91 42 -4 1 -13 -6 -20 -15z"/>
<path d="M2314 1585 c-40 -18 -75 -38 -79 -45 -11 -17 15 -41 37 -34 17 5 18
3 8 -15 -19 -37 16 -37 92 0 80 39 99 56 77 70 -8 4 -23 6 -34 2 -17 -5 -17
-3 4 14 27 22 21 43 -12 42 -12 0 -54 -16 -93 -34z"/>
<path d="M1977 1553 c-4 -3 -7 -28 -7 -55 0 -52 -8 -57 -50 -33 -14 8 -33 14
-42 15 -25 0 -23 -37 3 -50 11 -7 18 -14 15 -17 -12 -12 26 -42 80 -63 l54
-22 58 28 c60 31 82 64 41 64 -18 0 -20 3 -11 12 17 17 15 48 -2 48 -8 0 -26
-4 -40 -9 -20 -8 -27 -6 -40 14 -8 12 -18 35 -22 49 -6 25 -23 34 -37 19z"/>
<path d="M2500 1095 c-24 -14 -23 -14 25 -14 46 0 48 1 31 14 -24 18 -25 18
-56 0z"/>
<path d="M2624 1101 c4 -5 0 -12 -6 -14 -8 -3 -6 -6 5 -6 9 -1 17 6 17 14 0 8
-5 15 -11 15 -5 0 -8 -4 -5 -9z"/>
<path d="M2435 1070 c-3 -6 1 -7 9 -4 18 7 21 14 7 14 -6 0 -13 -4 -16 -10z"/>
<path d="M2477 1041 c-3 -14 -1 -18 9 -14 8 3 12 9 9 13 -3 5 1 11 7 13 8 4 7
6 -3 6 -9 1 -19 -8 -22 -18z"/>
<path d="M2400 1029 c0 -5 5 -7 10 -4 6 3 10 8 10 11 0 2 -4 4 -10 4 -5 0 -10
-5 -10 -11z"/>
<path d="M2588 1023 c6 -2 18 -2 25 0 6 3 1 5 -13 5 -14 0 -19 -2 -12 -5z"/>
<path d="M2420 940 c0 -13 20 -13 40 0 12 8 9 10 -12 10 -16 0 -28 -4 -28 -10z"/>
<path d="M2584 915 c-20 -22 -20 -23 -3 -22 10 1 16 3 14 6 -7 6 15 31 27 31
5 0 6 -5 2 -12 -4 -7 -3 -8 5 -4 13 9 5 26 -12 25 -7 -1 -22 -12 -33 -24z"/>
<path d="M2440 914 c0 -1 13 -7 29 -12 22 -8 31 -7 34 1 3 8 -8 12 -29 13 -19
0 -34 -1 -34 -2z"/>
<path d="M1280 1250 c-8 -5 -12 -12 -9 -15 4 -3 12 1 19 10 14 17 11 19 -10 5z"/>
<path d="M1070 1149 c0 -5 5 -7 10 -4 6 3 10 8 10 11 0 2 -4 4 -10 4 -5 0 -10
-5 -10 -11z"/>
<path d="M1138 1143 c7 -3 16 -2 19 1 4 3 -2 6 -13 5 -11 0 -14 -3 -6 -6z"/>
<path d="M1135 1110 c-3 -5 -1 -10 4 -10 6 0 11 5 11 10 0 6 -2 10 -4 10 -3 0
-8 -4 -11 -10z"/>
<path d="M1205 1080 c-3 -5 -2 -10 4 -10 5 0 13 5 16 10 3 6 2 10 -4 10 -5 0
-13 -4 -16 -10z"/>
<path d="M1250 1070 c-13 -8 -12 -10 3 -10 9 0 17 5 17 10 0 12 -1 12 -20 0z"/>
<path d="M1305 1053 c-17 -39 -15 -50 8 -48 36 4 37 4 37 16 0 6 -6 9 -13 6
-8 -3 -20 -1 -28 3 -11 7 -10 10 4 16 9 3 17 10 17 15 0 16 -18 10 -25 -8z"/>
<path d="M1321 961 c-9 -6 -10 -11 -2 -15 13 -8 31 1 31 15 0 11 -11 11 -29 0z"/>
<path d="M1126 939 c5 -9 -1 -10 -20 -5 -16 4 -26 2 -26 -4 0 -6 4 -9 9 -5 5
3 12 1 16 -5 3 -5 -1 -10 -9 -10 -9 0 -16 -4 -16 -10 0 -17 21 -11 41 13 21
25 24 37 8 37 -5 0 -7 -5 -3 -11z"/>
<path d="M1145 914 c-16 -25 -16 -25 4 -14 14 7 21 7 21 0 0 -5 8 -10 17 -10
14 0 13 3 -5 16 -12 8 -20 20 -17 25 14 22 -4 7 -20 -17z"/>
<path d="M1250 900 c-13 -8 -13 -10 2 -10 9 0 20 5 23 10 8 13 -5 13 -25 0z"/>
<path d="M1950 1149 c0 -5 5 -7 10 -4 6 3 10 8 10 11 0 2 -4 4 -10 4 -5 0 -10
-5 -10 -11z"/>
<path d="M1848 1143 c-10 -2 -18 -9 -18 -14 0 -6 8 -5 20 1 11 6 20 13 20 15
0 3 -1 4 -2 4 -2 -1 -11 -3 -20 -6z"/>
<path d="M1986 1081 c-4 -5 0 -12 6 -14 7 -3 3 -6 -9 -6 -12 -1 -25 -6 -29
-13 -5 -8 -2 -9 10 -5 10 4 24 7 32 7 8 0 14 6 14 14 0 18 -17 30 -24 17z"/>
<path d="M1836 1024 c-23 -23 -20 -30 4 -9 11 10 20 20 20 22 0 7 -9 2 -24
-13z"/>
<path d="M1880 1025 c-7 -9 -8 -15 -2 -15 5 0 12 7 16 15 3 8 4 15 2 15 -2 0
-9 -7 -16 -15z"/>
<path d="M1902 1000 c-12 -12 -22 -30 -22 -41 0 -16 6 -20 28 -17 23 3 27 8
30 41 4 42 -5 46 -36 17z"/>
<path d="M1975 950 c-3 -6 1 -7 9 -4 18 7 21 14 7 14 -6 0 -13 -4 -16 -10z"/>
<path d="M1844 933 c3 -6 -2 -16 -11 -22 -16 -9 -16 -10 -1 -11 23 0 33 19 18
33 -10 9 -11 9 -6 0z"/>
<path d="M1873 905 c0 -9 4 -14 9 -13 5 2 10 8 10 13 0 5 -5 11 -10 13 -5 1
-9 -4 -9 -13z"/>
<path d="M1934 905 c-10 -8 -14 -15 -8 -15 5 0 19 7 30 15 10 8 14 15 8 15 -5
0 -19 -7 -30 -15z"/>
<path d="M1440 1161 c0 -9 30 -24 36 -18 2 1 -6 8 -16 15 -11 7 -20 8 -20 3z"/>
<path d="M1620 1156 c0 -2 9 -6 20 -9 11 -3 18 -1 14 4 -5 9 -34 13 -34 5z"/>
<path d="M1505 1125 c-25 -12 -26 -14 -5 -9 28 7 60 23 45 23 -5 0 -23 -6 -40
-14z"/>
<path d="M1443 1100 c0 -34 2 -35 36 -16 l24 13 -29 7 c-22 6 -25 9 -13 17 12
7 12 9 -2 9 -11 0 -16 -9 -16 -30z"/>
<path d="M1553 1088 c-19 -24 -18 -105 3 -135 18 -28 34 -29 65 -4 44 35 17
151 -35 151 -13 0 -28 -6 -33 -12z"/>
<path d="M1455 1030 c-3 -6 1 -7 9 -4 18 7 21 14 7 14 -6 0 -13 -4 -16 -10z"/>
<path d="M1698 1033 c7 -3 16 -2 19 1 4 3 -2 6 -13 5 -11 0 -14 -3 -6 -6z"/>
<path d="M1440 990 c0 -5 7 -7 15 -4 8 4 15 8 15 10 0 2 -7 4 -15 4 -8 0 -15
-4 -15 -10z"/>
<path d="M1464 958 c8 -4 25 -4 38 1 20 8 18 9 -15 8 -24 -1 -32 -4 -23 -9z"/>
<path d="M1444 939 c-9 -16 2 -22 21 -11 15 8 16 10 1 15 -8 3 -18 2 -22 -4z"/>
<path d="M1500 935 c-14 -16 -10 -18 14 -9 9 3 16 10 16 15 0 14 -16 11 -30
-6z"/>
<path d="M1690 937 c-14 -7 -45 -19 -68 -26 -67 -19 -45 -22 31 -3 38 10 67
22 67 30 0 15 1 15 -30 -1z"/>
<path d="M1456 904 c-27 -19 -13 -30 14 -11 12 8 18 17 13 20 -4 3 -17 -1 -27
-9z"/>
<path d="M1527 913 c-4 -3 -7 -12 -7 -19 0 -11 5 -11 25 -2 19 8 22 14 13 20
-16 10 -23 10 -31 1z"/>
<path d="M1650 884 l-25 -15 25 7 c14 3 29 10 35 15 15 14 -7 10 -35 -7z"/>
<path d="M1548 863 c7 -3 16 -2 19 1 4 3 -2 6 -13 5 -11 0 -14 -3 -6 -6z"/>
<path d="M1480 840 c-9 -6 -10 -10 -3 -10 6 0 15 5 18 10 8 12 4 12 -15 0z"/>
<path d="M2756 1155 c-11 -8 -15 -15 -10 -15 6 0 19 7 30 15 10 8 15 14 9 14
-5 0 -19 -6 -29 -14z"/>
<path d="M2818 1023 c7 -3 16 -2 19 1 4 3 -2 6 -13 5 -11 0 -14 -3 -6 -6z"/>
<path d="M2868 1003 c7 -3 16 -2 19 1 4 3 -2 6 -13 5 -11 0 -14 -3 -6 -6z"/>
<path d="M2910 960 c-13 -8 -13 -10 2 -10 9 0 20 5 23 10 8 13 -5 13 -25 0z"/>
<path d="M2850 930 c0 -5 7 -7 15 -4 8 4 15 8 15 10 0 2 -7 4 -15 4 -8 0 -15
-4 -15 -10z"/>
<path d="M2875 905 l-40 -14 40 6 c22 3 44 9 50 14 12 12 -1 10 -50 -6z"/>
<path d="M2265 1150 c-3 -6 1 -7 9 -4 18 7 21 14 7 14 -6 0 -13 -4 -16 -10z"/>
<path d="M2298 1123 c7 -3 16 -2 19 1 4 3 -2 6 -13 5 -11 0 -14 -3 -6 -6z"/>
<path d="M2163 1102 c-34 -16 -40 -26 -23 -37 6 -3 10 -1 10 4 0 6 6 11 13 11
17 1 50 27 40 33 -4 2 -23 -2 -40 -11z"/>
<path d="M2155 1040 c-16 -7 -17 -9 -3 -9 9 -1 20 4 23 9 7 11 7 11 -20 0z"/>
<path d="M2130 990 c-8 -5 -10 -10 -5 -10 6 0 17 5 25 10 8 5 11 10 5 10 -5 0
-17 -5 -25 -10z"/>
<path d="M2186 955 c-3 -8 -1 -15 4 -15 6 0 10 7 10 15 0 8 -2 15 -4 15 -2 0
-6 -7 -10 -15z"/>
<path d="M2150 950 c-13 -8 -12 -10 3 -10 9 0 17 5 17 10 0 12 -1 12 -20 0z"/>
<path d="M2285 918 c-11 -6 -23 -16 -26 -21 -8 -11 -51 1 -44 13 3 4 -4 6 -16
3 -27 -7 -13 -20 31 -28 30 -5 39 -2 59 19 27 29 26 31 -4 14z"/>
<path d="M2317 915 c-4 -8 -3 -16 1 -19 4 -3 9 4 9 15 2 23 -3 25 -10 4z"/>
</g>
</svg>
